<svg width="20" height="21" viewBox="0 0 20 21" fill="none" xmlns="http://www.w3.org/2000/svg">
<path fill-rule="evenodd" clip-rule="evenodd" d="M0.877785 0.510988L0.776337 0.500378C0.407155 0.486882 0.0756195 0.747961 0.0108656 1.12209L0.000255814 1.22354C-0.0132403 1.59272 0.247839 1.92426 0.621972 1.98901L2.13098 2.25L3.04551 13.1457L3.06443 13.3095C3.24843 14.5519 4.31708 15.486 5.58988 15.486H16.5019L16.6662 15.4808C17.8626 15.4044 18.8545 14.4996 19.0291 13.2978L19.9781 6.73941L19.9945 6.58877C20.0819 5.38969 19.132 4.349 17.9089 4.349H3.81198L3.57725 1.54727L3.55956 1.43641C3.49112 1.14809 3.25673 0.922729 2.95778 0.870988L0.877785 0.510988ZM5.47394 13.9797C4.97867 13.9255 4.58258 13.5277 4.54028 13.0207L3.93798 5.849H17.9089L17.997 5.85548C18.3128 5.90242 18.5409 6.19769 18.4936 6.52465L17.5446 13.0826L17.5208 13.1998C17.4005 13.6584 16.985 13.986 16.5019 13.986H5.58988L5.47394 13.9797ZM3.90828 18.5853C3.90828 17.7492 4.58595 17.0703 5.42228 17.0703C6.25849 17.0703 6.93728 17.7491 6.93728 18.5853C6.93728 19.4216 6.25838 20.0993 5.42228 20.0993C4.58606 20.0993 3.90828 19.4215 3.90828 18.5853ZM15.1597 18.5853C15.1597 17.7491 15.8385 17.0703 16.6747 17.0703C17.5109 17.0703 18.1897 17.7491 18.1897 18.5853C18.1897 19.4216 17.5108 20.0993 16.6747 20.0993C15.8386 20.0993 15.1597 19.4216 15.1597 18.5853ZM15.6484 8.795C15.6484 8.38079 15.3126 8.045 14.8984 8.045H12.1254L12.0236 8.05185C11.6575 8.10151 11.3754 8.4153 11.3754 8.795C11.3754 9.20921 11.7112 9.545 12.1254 9.545H14.8984L15.0001 9.53815C15.3662 9.48849 15.6484 9.1747 15.6484 8.795Z" fill="#200E32"/>
</svg>
