<svg width="20" height="20" viewBox="0 0 20 20" fill="none" xmlns="http://www.w3.org/2000/svg">
<path fill-rule="evenodd" clip-rule="evenodd" d="M2.5399 0H5.9199C7.3299 0 8.4599 1.15 8.4599 2.561V5.97C8.4599 7.39 7.3299 8.53 5.9199 8.53H2.5399C1.1399 8.53 -0.000100136 7.39 -0.000100136 5.97V2.561C-0.000100136 1.15 1.1399 0 2.5399 0ZM2.5399 11.4697H5.9199C7.3299 11.4697 8.4599 12.6107 8.4599 14.0307V17.4397C8.4599 18.8497 7.3299 19.9997 5.9199 19.9997H2.5399C1.1399 19.9997 -0.000100136 18.8497 -0.000100136 17.4397V14.0307C-0.000100136 12.6107 1.1399 11.4697 2.5399 11.4697ZM17.46 0H14.08C12.67 0 11.54 1.15 11.54 2.561V5.97C11.54 7.39 12.67 8.53 14.08 8.53H17.46C18.86 8.53 20 7.39 20 5.97V2.561C20 1.15 18.86 0 17.46 0ZM14.08 11.4697H17.46C18.86 11.4697 20 12.6107 20 14.0307V17.4397C20 18.8497 18.86 19.9997 17.46 19.9997H14.08C12.67 19.9997 11.54 18.8497 11.54 17.4397V14.0307C11.54 12.6107 12.67 11.4697 14.08 11.4697Z" fill="#200E32"/>
</svg>
