<svg xmlns="http://www.w3.org/2000/svg" xmlns:xlink="http://www.w3.org/1999/xlink" viewBox="0 0 400 300" width="406" height="306" class="illustration styles_illustrationTablet__1DWOa"><defs><linearGradient id="linear-gradient" x1="232.11" y1="268.56" x2="201.59" y2="239.77" gradientUnits="userSpaceOnUse"><stop offset="0" stop-color="#fff" stop-opacity="0"></stop><stop offset="0.99" stop-color="#0071bc"></stop></linearGradient><linearGradient id="linear-gradient-2" x1="162.85" y1="209.12" x2="109.46" y2="169.59" xlink:href="#linear-gradient"></linearGradient><linearGradient id="linear-gradient-3" x1="321.87" y1="210.2" x2="287.92" y2="171.08" xlink:href="#linear-gradient"></linearGradient><linearGradient id="linear-gradient-4" x1="237.27" y1="136.87" x2="215.6" y2="113.88" xlink:href="#linear-gradient"></linearGradient></defs><title>PP</title><g style="isolation: isolate;"><g id="Layer_2" data-name="Layer 2"><path d="M194.28,288.83,14.56,182.61c-5.72-3.21-10.63-8.49-5.05-11.94l180.37-104c2.71-1.68,6.82-2.78,9.57-1.18L388.11,175c5.72,3.32,6.75,12.6,1,15.93L218,288.66A23.9,23.9,0,0,1,194.28,288.83Z" fill="#b095fe"></path><path d="M250.66,257c-4.05,1.24-3.65,5.41-7.81,6.24-2.54.51-3.26,6.4-5.83,6.6l-17.94,13.64-53.2-33.13,49.89-28.66,42.93,27.58C252,254.21,258.48,254.65,250.66,257Z" opacity="0.63" fill="url(#linear-gradient)" style="mix-blend-mode: multiply;"></path><path d="M191.55,201.47c-5.51,1.69-5,7.36-10.64,8.5-3.46.7-4.44,8.72-7.94,9l-24.42,18.58L76.11,192.42l67.93-39,58.45,37.55C193.39,197.62,202.2,198.21,191.55,201.47Z" opacity="0.63" fill="url(#linear-gradient-2)" style="mix-blend-mode: multiply;"></path><path d="M372.84,193.47l-57-36.62-70.58,40.55L304.05,234C327.49,221.37,349.67,206.56,372.84,193.47Z" opacity="0.63" fill="url(#linear-gradient-3)" style="mix-blend-mode: multiply;"></path><polygon points="158.05 112.55 42.45 138.23 42.45 172.3 87.59 199.42 158.05 158.12 158.05 112.55" fill="#ED7117"></polygon><polyline points="158.46 112.48 86.92 161.69 42.45 138.23 75.98 119.95" fill="#3099aa" opacity="0.81"></polyline><path d="M34.07,131.25l42.64,24.62a109.52,109.52,0,0,0,37-13c19.08-10.88,45.36-31.13,45.36-31.13L119.88,89,64.45,121.73S49.12,129.21,34.07,131.25Z" fill="#ED7117"></path><path d="M38.91,132l38.54,22.26a130.66,130.66,0,0,0,35.25-13.35c17.25-9.84,41-28.14,41-28.14L118.28,92.21,68.16,121.8A149.8,149.8,0,0,1,38.91,132Z" fill="none" stroke="#2e3192" stroke-miterlimit="10"></path><polygon points="86.92 161.69 86.92 199.42 158.05 158.12 159.08 111.69 86.92 161.69" fill="#3099aa" opacity="0.54"></polygon><polygon points="86.92 161.69 86.92 199.42 158.05 158.12 159.08 111.69 86.92 161.69" fill="#3099aa" opacity="0.54"></polygon><path d="M90.74,114.21l26.38-16.39L146,113.08s-30.1,18.22-32.38,19.49-27.32,15-38.3,14.46l-25.12-14Z" fill="#fff" opacity="0.5"></path><ellipse cx="99.38" cy="126.13" rx="22.73" ry="10.96" fill="#3099aa" opacity="0.54"></ellipse><path d="M42.45,145.4q11.22,6,22.39,12.15t22.3,12.31l-.47,0,17.77-11.63,17.82-11.56,17.87-11.48q8.94-5.72,17.94-11.37-8.79,6-17.63,11.84l-17.7,11.73L105,159.06l-17.8,11.58-.23.15-.24-.13q-11.11-6.22-22.17-12.55T42.45,145.4Z" fill="#3099aa" opacity="0.68"></path><path d="M42.45,154.33q11.22,6,22.39,12.15t22.3,12.31l-.47,0,17.77-11.63,17.82-11.56,17.87-11.48q8.94-5.72,17.94-11.37-8.79,6-17.63,11.84l-17.7,11.73L105,168l-17.8,11.58-.23.15-.24-.13Q75.58,173.37,64.53,167T42.45,154.33Z" fill="#3099aa" opacity="0.68"></path><path d="M42.65,161.17q11.22,6,22.39,12.15t22.3,12.31l-.47,0L104.63,174l17.82-11.56L140.32,151q8.94-5.72,17.94-11.37-8.79,6-17.63,11.84l-17.7,11.73-17.75,11.65-17.8,11.58-.23.15-.24-.13q-11.11-6.22-22.17-12.55T42.65,161.17Z" fill="#3099aa" opacity="0.68"></path><path d="M42.45,167.85q11.22,6,22.39,12.15t22.3,12.31l-.47,0,17.77-11.63,17.82-11.56,17.87-11.48q8.94-5.72,17.94-11.37-8.79,6-17.63,11.84l-17.7,11.73L105,181.51l-17.8,11.58-.23.15-.24-.13q-11.11-6.22-22.17-12.55T42.45,167.85Z" fill="#3099aa" opacity="0.68"></path><polygon points="69.18 118.94 113.72 142.83 113.72 184.1 130.5 174.12 130.5 131.71 86.92 108.47 69.18 118.94" fill="#dce5ca"></polygon><polygon points="113.72 142.83 130.5 131.71 130.5 174.12 113.72 184.1 113.72 142.83" fill="#c7d1b0"></polygon><path d="M104.22,122.79a8.61,8.61,0,0,1,3.14.88,3.78,3.78,0,0,1,1.7,1.42,1.63,1.63,0,0,1-.08,1.73,4.83,4.83,0,0,1-1.86,1.59l3,1.45-1.63.85-3-1.5a13.68,13.68,0,0,1-4.48.89,11.26,11.26,0,0,1-4.82-.84l3.12-1.62a6.24,6.24,0,0,0,2,.41,5.92,5.92,0,0,0,1.52-.13l-4.49-2.21c-1.29.35-2.4.61-3.31.77a12,12,0,0,1-3,.12,8.7,8.7,0,0,1-3.16-.89,3.32,3.32,0,0,1-1.7-1.5,1.7,1.7,0,0,1,.25-1.71,5.22,5.22,0,0,1,1.6-1.38L86,119.7l1.63-.85,3,1.46a12.33,12.33,0,0,1,4.41-.93,11.19,11.19,0,0,1,4.57.79l-3.16,1.64a5.81,5.81,0,0,0-1.85-.35,5.24,5.24,0,0,0-1.38.13l4.36,2.14.2,0q2-.52,3.4-.77A11.82,11.82,0,0,1,104.22,122.79Zm1,3.54c0-.37-.32-.7-.92-1a4,4,0,0,0-1.89-.39,10.48,10.48,0,0,0-1.86.23l4.09,2c.39-.27.59-.56.58-.85m-9.87-2.07-3.85-1.89a1.09,1.09,0,0,0-.5.73c0,.33.27.64.85.93a4.07,4.07,0,0,0,1.84.4,10.22,10.22,0,0,0,1.66-.17" fill="#0a5293"></path><polygon points="169.59 66.16 53.98 91.84 53.98 125.91 99.12 153.03 169.59 111.73 169.59 66.16" fill="#ED7117"></polygon><polyline points="169.99 66.09 98.45 115.3 53.98 91.84 87.51 73.56" fill="#3099aa" opacity="0.81"></polyline><path d="M45.6,84.86l42.64,24.62a109.52,109.52,0,0,0,37-13c19.08-10.88,45.36-31.13,45.36-31.13l-39.2-22.69L76,75.34S60.66,82.82,45.6,84.86Z" fill="#ED7117"></path><path d="M50.45,85.57,89,107.84a130.66,130.66,0,0,0,35.25-13.35c17.25-9.84,41-28.14,41-28.14L129.82,45.82,79.7,75.41A149.8,149.8,0,0,1,50.45,85.57Z" fill="none" stroke="#2e3192" stroke-miterlimit="10"></path><polygon points="98.45 115.3 98.45 153.03 169.59 111.73 170.62 65.3 98.45 115.3" fill="#3099aa" opacity="0.54"></polygon><polygon points="98.45 115.3 98.45 153.03 169.59 111.73 170.62 65.3 98.45 115.3" fill="#3099aa" opacity="0.54"></polygon><path d="M102.28,67.82l26.38-16.39,28.83,15.26s-30.1,18.22-32.38,19.49-27.32,15-38.3,14.46l-25.12-14Z" fill="#fff" opacity="0.5"></path><ellipse cx="110.91" cy="79.74" rx="22.73" ry="10.96" fill="#3099aa" opacity="0.54"></ellipse><path d="M54,99q11.22,6,22.39,12.15t22.3,12.31l-.47,0L116,111.85l17.82-11.56,17.87-11.48q8.94-5.72,17.94-11.37-8.79,6-17.63,11.84L134.26,101,116.5,112.67,98.7,124.24l-.23.15-.24-.13Q87.12,118,76.06,111.71T54,99Z" fill="#3099aa" opacity="0.68"></path><path d="M54,107.94q11.22,6,22.39,12.15t22.3,12.31l-.47,0L116,120.79l17.82-11.56,17.87-11.48q8.94-5.72,17.94-11.37-8.79,6-17.63,11.84L134.25,110,116.5,121.61,98.7,133.18l-.23.15-.24-.13Q87.11,127,76.06,120.65T54,107.94Z" fill="#3099aa" opacity="0.68"></path><path d="M54.18,114.78q11.22,6,22.39,12.15t22.3,12.31l-.47,0,17.77-11.63L134,116.06l17.87-11.48q8.94-5.72,17.94-11.37-8.79,6-17.63,11.84l-17.7,11.73L116.7,128.44,98.9,140l-.23.15-.24-.13q-11.11-6.22-22.17-12.55T54.18,114.78Z" fill="#3099aa" opacity="0.68"></path><path d="M54,121.45q11.22,6,22.39,12.15t22.3,12.31l-.47,0L116,134.3l17.82-11.56,17.87-11.48q8.94-5.72,17.94-11.37-8.79,6-17.63,11.84l-17.7,11.73L116.5,135.12,98.7,146.69l-.23.15-.24-.13q-11.11-6.22-22.17-12.55T54,121.45Z" fill="#3099aa" opacity="0.68"></path><polygon points="80.71 72.55 125.26 96.44 125.26 137.71 142.03 127.73 142.03 85.32 98.45 62.08 80.71 72.55" fill="#dce5ca"></polygon><polygon points="125.26 96.44 142.03 85.32 142.03 127.73 125.26 137.71 125.26 96.44" fill="#c7d1b0"></polygon><path d="M115.75,76.4a8.61,8.61,0,0,1,3.14.88,3.78,3.78,0,0,1,1.7,1.42,1.63,1.63,0,0,1-.08,1.73A4.83,4.83,0,0,1,118.65,82l3,1.45-1.63.85-3-1.5a13.68,13.68,0,0,1-4.48.89,11.26,11.26,0,0,1-4.82-.84l3.12-1.62a6.24,6.24,0,0,0,2,.41,5.92,5.92,0,0,0,1.52-.13l-4.49-2.21c-1.29.35-2.4.61-3.31.77a12,12,0,0,1-3,.12,8.7,8.7,0,0,1-3.16-.89,3.32,3.32,0,0,1-1.7-1.5,1.7,1.7,0,0,1,.25-1.71,5.22,5.22,0,0,1,1.6-1.38l-2.93-1.44,1.63-.85,3,1.46a12.33,12.33,0,0,1,4.41-.93,11.19,11.19,0,0,1,4.57.79L108,75.42a5.81,5.81,0,0,0-1.85-.35,5.24,5.24,0,0,0-1.38.13l4.36,2.14.2,0q2-.52,3.4-.77A11.82,11.82,0,0,1,115.75,76.4Zm1,3.54c0-.37-.32-.7-.92-1a4,4,0,0,0-1.89-.39,10.48,10.48,0,0,0-1.86.23l4.09,2c.39-.27.59-.56.58-.85m-9.87-2.07L103,76a1.09,1.09,0,0,0-.5.73c0,.33.27.64.85.93a4.07,4.07,0,0,0,1.84.4,10.22,10.22,0,0,0,1.66-.17" fill="#0a5293"></path><path d="M230.17,109.09l-37.25,19.55,37.94,22.1h1c14.87-8.2,24.94-14.29,35.5-20.81C253.66,122.64,242.81,118,230.17,109.09Z" opacity="0.63" fill="url(#linear-gradient-4)" style="mix-blend-mode: multiply;"></path><ellipse cx="207.86" cy="117.93" rx="23.56" ry="13.8" fill="#ff912e"></ellipse><polygon points="184.3 117.94 184.3 113.95 186.87 117.14 184.3 117.94" fill="#e0944f"></polygon><polygon points="231.43 113.95 231.43 117.94 228.44 117.94 230.63 114.73 231.43 113.95" fill="#e0944f"></polygon><ellipse cx="207.86" cy="113.95" rx="23.56" ry="13.8" fill="#ffb92c"></ellipse><path d="M219.82,112.1a1.84,1.84,0,0,1,.19,1l-.09.37-4.3,0a2,2,0,0,0,.08-.37,1.61,1.61,0,0,0-.26-.78,2.35,2.35,0,0,0-1-1,4.71,4.71,0,0,0-2-.53,4.36,4.36,0,0,0-1.92.3q-.9.39-.7,1a3.73,3.73,0,0,0,.92,1.35,16.38,16.38,0,0,1,1.3,1.5,1.57,1.57,0,0,1,.23,1.66,3.71,3.71,0,0,1-2.09,1.63,12.37,12.37,0,0,1-4.56.95,14.58,14.58,0,0,1-5-.7l-2.47,1.06-2.9-1.41,2.41-1a5.43,5.43,0,0,1-1.15-1,3.06,3.06,0,0,1-.57-1,3.16,3.16,0,0,1-.15-.78,1.68,1.68,0,0,1,0-.54l.08-.2h4.3a3.43,3.43,0,0,0-.1.44,1.83,1.83,0,0,0,.35,1,3.23,3.23,0,0,0,1.43,1.21,6.11,6.11,0,0,0,2.5.65,5.2,5.2,0,0,0,2.3-.37q.89-.38.67-1a3.72,3.72,0,0,0-1-1.35,13.77,13.77,0,0,1-1.32-1.49,1.54,1.54,0,0,1-.18-1.67,4,4,0,0,1,2.19-1.66,11.84,11.84,0,0,1,4.37-.86,12.63,12.63,0,0,1,4.66.73l2.47-1.06,2.7,1.47-2.47,1.06A3.52,3.52,0,0,1,219.82,112.1Z" fill="#ea8b24"></path><ellipse cx="207.91" cy="114.12" rx="19.78" ry="11.59" fill="none" stroke="#f7931e" stroke-miterlimit="10" stroke-width="2"></ellipse><ellipse cx="207.86" cy="112.91" rx="23.56" ry="13.8" fill="#ff912e"></ellipse><polygon points="184.3 112.91 184.3 108.92 186.87 112.11 184.3 112.91" fill="#e0944f"></polygon><polygon points="231.43 108.92 231.43 112.91 228.44 112.91 230.63 109.71 231.43 108.92" fill="#e0944f"></polygon><ellipse cx="207.86" cy="108.92" rx="23.56" ry="13.8" fill="#ffb92c"></ellipse><path d="M219.82,107.07a1.84,1.84,0,0,1,.19,1l-.09.37-4.3,0a2,2,0,0,0,.08-.37,1.61,1.61,0,0,0-.26-.78,2.35,2.35,0,0,0-1-1,4.71,4.71,0,0,0-2-.53,4.36,4.36,0,0,0-1.92.3q-.9.39-.7,1a3.73,3.73,0,0,0,.92,1.35A16.38,16.38,0,0,1,212,110a1.57,1.57,0,0,1,.23,1.66,3.71,3.71,0,0,1-2.09,1.63,12.37,12.37,0,0,1-4.56.95,14.58,14.58,0,0,1-5-.7l-2.47,1.06-2.9-1.41,2.41-1a5.43,5.43,0,0,1-1.15-1,3.06,3.06,0,0,1-.57-1,3.16,3.16,0,0,1-.15-.78,1.68,1.68,0,0,1,0-.54l.08-.2h4.3a3.43,3.43,0,0,0-.1.44,1.83,1.83,0,0,0,.35,1,3.23,3.23,0,0,0,1.43,1.21,6.11,6.11,0,0,0,2.5.65,5.2,5.2,0,0,0,2.3-.37q.89-.38.67-1a3.72,3.72,0,0,0-1-1.35,13.77,13.77,0,0,1-1.32-1.49,1.54,1.54,0,0,1-.18-1.67,4,4,0,0,1,2.19-1.66,11.84,11.84,0,0,1,4.37-.86,12.63,12.63,0,0,1,4.66.73l2.47-1.06,2.7,1.47-2.47,1.06A3.52,3.52,0,0,1,219.82,107.07Z" fill="#ea8b24"></path><ellipse cx="207.91" cy="109.09" rx="19.78" ry="11.59" fill="none" stroke="#f7931e" stroke-miterlimit="10" stroke-width="2"></ellipse><ellipse cx="207.86" cy="108.13" rx="23.56" ry="13.8" fill="#ff912e"></ellipse><polygon points="184.3 108.13 184.3 104.14 186.87 107.33 184.3 108.13" fill="#e0944f"></polygon><polygon points="231.43 104.14 231.43 108.13 228.44 108.13 230.63 104.93 231.43 104.14" fill="#e0944f"></polygon><ellipse cx="207.86" cy="104.14" rx="23.56" ry="13.8" fill="#ffb92c"></ellipse><path d="M219.82,102.3a1.84,1.84,0,0,1,.19,1l-.09.37-4.3,0a2,2,0,0,0,.08-.37,1.61,1.61,0,0,0-.26-.78,2.35,2.35,0,0,0-1-1,4.71,4.71,0,0,0-2-.53,4.36,4.36,0,0,0-1.92.3q-.9.39-.7,1a3.73,3.73,0,0,0,.92,1.35,16.38,16.38,0,0,1,1.3,1.5,1.57,1.57,0,0,1,.23,1.66,3.71,3.71,0,0,1-2.09,1.63,12.37,12.37,0,0,1-4.56.95,14.58,14.58,0,0,1-5-.7l-2.47,1.06-2.9-1.41,2.41-1a5.43,5.43,0,0,1-1.15-1,3.06,3.06,0,0,1-.57-1,3.16,3.16,0,0,1-.15-.78,1.68,1.68,0,0,1,0-.54l.08-.2h4.3a3.43,3.43,0,0,0-.1.44,1.83,1.83,0,0,0,.35,1,3.23,3.23,0,0,0,1.43,1.21,6.11,6.11,0,0,0,2.5.65,5.2,5.2,0,0,0,2.3-.37q.89-.38.67-1a3.72,3.72,0,0,0-1-1.35,13.77,13.77,0,0,1-1.32-1.49,1.54,1.54,0,0,1-.18-1.67,4,4,0,0,1,2.19-1.66,11.84,11.84,0,0,1,4.37-.86,12.63,12.63,0,0,1,4.66.73l2.47-1.06,2.7,1.47L218.79,101A3.52,3.52,0,0,1,219.82,102.3Z" fill="#ea8b24"></path><ellipse cx="207.91" cy="104.31" rx="19.78" ry="11.59" fill="none" stroke="#f7931e" stroke-miterlimit="10" stroke-width="2"></ellipse><ellipse cx="207.86" cy="103.26" rx="23.56" ry="13.8" fill="#ff912e"></ellipse><polygon points="184.3 103.26 184.3 99.27 186.87 102.46 184.3 103.26" fill="#e0944f"></polygon><polygon points="231.43 99.27 231.43 103.26 228.44 103.26 230.63 100.06 231.43 99.27" fill="#e0944f"></polygon><ellipse cx="207.86" cy="99.27" rx="23.56" ry="13.8" fill="#ffb92c"></ellipse><path d="M219.82,97.43a1.84,1.84,0,0,1,.19,1l-.09.37-4.3,0a2,2,0,0,0,.08-.37,1.61,1.61,0,0,0-.26-.78,2.35,2.35,0,0,0-1-1,4.71,4.71,0,0,0-2-.53,4.36,4.36,0,0,0-1.92.3q-.9.39-.7,1a3.73,3.73,0,0,0,.92,1.35,16.38,16.38,0,0,1,1.3,1.5,1.57,1.57,0,0,1,.23,1.66,3.71,3.71,0,0,1-2.09,1.63,12.37,12.37,0,0,1-4.56.95,14.58,14.58,0,0,1-5-.7L198.11,105l-2.9-1.41,2.41-1a5.43,5.43,0,0,1-1.15-1,3.06,3.06,0,0,1-.57-1,3.16,3.16,0,0,1-.15-.78,1.68,1.68,0,0,1,0-.54l.08-.2h4.3a3.43,3.43,0,0,0-.1.44,1.83,1.83,0,0,0,.35,1,3.23,3.23,0,0,0,1.43,1.21,6.11,6.11,0,0,0,2.5.65,5.2,5.2,0,0,0,2.3-.37q.89-.38.67-1a3.72,3.72,0,0,0-1-1.35A13.77,13.77,0,0,1,205,98.07a1.54,1.54,0,0,1-.18-1.67,4,4,0,0,1,2.19-1.66,11.84,11.84,0,0,1,4.37-.86,12.63,12.63,0,0,1,4.66.73l2.47-1.06,2.7,1.47-2.47,1.06A3.52,3.52,0,0,1,219.82,97.43Z" fill="#ea8b24"></path><ellipse cx="207.91" cy="99.44" rx="19.78" ry="11.59" fill="none" stroke="#f7931e" stroke-miterlimit="10" stroke-width="2"></ellipse><ellipse cx="207.68" cy="97.28" rx="23.56" ry="13.8" fill="#ff912e"></ellipse><polygon points="184.12 97.28 184.12 93.29 186.68 96.48 184.12 97.28" fill="#e0944f"></polygon><polygon points="231.24 93.29 231.24 97.28 228.25 97.28 230.44 94.08 231.24 93.29" fill="#e0944f"></polygon><ellipse cx="207.68" cy="93.29" rx="23.56" ry="13.8" fill="#ffb92c"></ellipse><path d="M219.63,91.45a1.84,1.84,0,0,1,.19,1l-.09.37-4.3,0a2,2,0,0,0,.08-.37,1.61,1.61,0,0,0-.26-.78,2.35,2.35,0,0,0-1-1,4.71,4.71,0,0,0-2-.53,4.36,4.36,0,0,0-1.92.3q-.9.39-.7,1a3.73,3.73,0,0,0,.92,1.35,16.38,16.38,0,0,1,1.3,1.5,1.57,1.57,0,0,1,.23,1.66,3.71,3.71,0,0,1-2.09,1.63,12.37,12.37,0,0,1-4.56.95,14.58,14.58,0,0,1-5-.7L197.92,99,195,97.6l2.41-1a5.43,5.43,0,0,1-1.15-1,3.06,3.06,0,0,1-.57-1,3.16,3.16,0,0,1-.15-.78,1.68,1.68,0,0,1,0-.54l.08-.2H200a3.43,3.43,0,0,0-.1.44,1.83,1.83,0,0,0,.35,1,3.23,3.23,0,0,0,1.43,1.21,6.11,6.11,0,0,0,2.5.65,5.2,5.2,0,0,0,2.3-.37q.89-.38.67-1a3.72,3.72,0,0,0-1-1.35,13.77,13.77,0,0,1-1.32-1.49,1.54,1.54,0,0,1-.18-1.67,4,4,0,0,1,2.19-1.66,11.84,11.84,0,0,1,4.37-.86,12.63,12.63,0,0,1,4.66.73l2.47-1.06,2.7,1.47-2.47,1.06A3.52,3.52,0,0,1,219.63,91.45Z" fill="#ea8b24"></path><ellipse cx="207.72" cy="93.46" rx="19.78" ry="11.59" fill="none" stroke="#f7931e" stroke-miterlimit="10" stroke-width="2"></ellipse><ellipse cx="207.68" cy="92.25" rx="23.56" ry="13.8" fill="#ff912e"></ellipse><polygon points="184.12 92.25 184.12 88.27 186.68 91.45 184.12 92.25" fill="#e0944f"></polygon><polygon points="231.24 88.27 231.24 92.25 228.25 92.25 230.44 89.05 231.24 88.27" fill="#e0944f"></polygon><ellipse cx="207.68" cy="88.26" rx="23.56" ry="13.8" fill="#ffb92c"></ellipse><path d="M219.63,86.42a1.84,1.84,0,0,1,.19,1l-.09.37-4.3,0a2,2,0,0,0,.08-.37,1.61,1.61,0,0,0-.26-.78,2.35,2.35,0,0,0-1-1,4.71,4.71,0,0,0-2-.53,4.36,4.36,0,0,0-1.92.3q-.9.39-.7,1a3.73,3.73,0,0,0,.92,1.35,16.38,16.38,0,0,1,1.3,1.5A1.57,1.57,0,0,1,212,91a3.71,3.71,0,0,1-2.09,1.63,12.37,12.37,0,0,1-4.56.95,14.58,14.58,0,0,1-5-.7L197.92,94,195,92.57l2.41-1a5.43,5.43,0,0,1-1.15-1,3.06,3.06,0,0,1-.57-1,3.16,3.16,0,0,1-.15-.78,1.68,1.68,0,0,1,0-.54l.08-.2H200a3.43,3.43,0,0,0-.1.44,1.83,1.83,0,0,0,.35,1,3.23,3.23,0,0,0,1.43,1.21,6.11,6.11,0,0,0,2.5.65,5.2,5.2,0,0,0,2.3-.37q.89-.38.67-1a3.72,3.72,0,0,0-1-1.35,13.77,13.77,0,0,1-1.32-1.49,1.54,1.54,0,0,1-.18-1.67,4,4,0,0,1,2.19-1.66,11.84,11.84,0,0,1,4.37-.86,12.63,12.63,0,0,1,4.66.73l2.47-1.06,2.7,1.47-2.47,1.06A3.52,3.52,0,0,1,219.63,86.42Z" fill="#ea8b24"></path><ellipse cx="207.72" cy="88.43" rx="19.78" ry="11.59" fill="none" stroke="#f7931e" stroke-miterlimit="10" stroke-width="2"></ellipse><ellipse cx="208.05" cy="87.47" rx="23.56" ry="13.8" fill="#ff912e"></ellipse><polygon points="184.49 87.47 184.49 83.49 187.05 86.67 184.49 87.47" fill="#e0944f"></polygon><polygon points="231.61 83.49 231.61 87.47 228.62 87.47 230.81 84.27 231.61 83.49" fill="#e0944f"></polygon><ellipse cx="208.05" cy="83.49" rx="23.56" ry="13.8" fill="#ffb92c"></ellipse><path d="M220,81.64a1.84,1.84,0,0,1,.19,1l-.09.37-4.3,0a2,2,0,0,0,.08-.37,1.61,1.61,0,0,0-.26-.78,2.35,2.35,0,0,0-1-1,4.71,4.71,0,0,0-2-.53,4.36,4.36,0,0,0-1.92.3q-.9.39-.7,1a3.73,3.73,0,0,0,.92,1.35,16.38,16.38,0,0,1,1.3,1.5,1.57,1.57,0,0,1,.23,1.66,3.71,3.71,0,0,1-2.09,1.63,12.37,12.37,0,0,1-4.56.95,14.58,14.58,0,0,1-5-.7l-2.47,1.06-2.9-1.41,2.41-1a5.43,5.43,0,0,1-1.15-1,3.06,3.06,0,0,1-.57-1,3.16,3.16,0,0,1-.15-.78,1.68,1.68,0,0,1,0-.54l.08-.2h4.3a3.43,3.43,0,0,0-.1.44,1.83,1.83,0,0,0,.35,1A3.23,3.23,0,0,0,202,85.86a6.11,6.11,0,0,0,2.5.65,5.2,5.2,0,0,0,2.3-.37q.89-.38.67-1a3.72,3.72,0,0,0-1-1.35,13.77,13.77,0,0,1-1.32-1.49,1.54,1.54,0,0,1-.18-1.67A4,4,0,0,1,207.24,79a11.84,11.84,0,0,1,4.37-.86,12.63,12.63,0,0,1,4.66.73l2.47-1.06,2.7,1.47L219,80.31A3.52,3.52,0,0,1,220,81.64Z" fill="#ea8b24"></path><ellipse cx="208.09" cy="83.65" rx="19.78" ry="11.59" fill="none" stroke="#f7931e" stroke-miterlimit="10" stroke-width="2"></ellipse><ellipse cx="215.15" cy="81.48" rx="23.56" ry="13.8" fill="#ff912e"></ellipse><polygon points="191.59 81.48 191.59 77.5 194.15 80.68 191.59 81.48" fill="#e0944f"></polygon><polygon points="238.71 77.5 238.71 81.48 235.72 81.48 237.91 78.28 238.71 77.5" fill="#e0944f"></polygon><ellipse cx="215.15" cy="77.5" rx="23.56" ry="13.8" fill="#ffb92c"></ellipse><path d="M227.1,75.65a1.84,1.84,0,0,1,.19,1l-.09.37-4.3,0a2,2,0,0,0,.08-.37,1.61,1.61,0,0,0-.26-.78,2.35,2.35,0,0,0-1-1,4.71,4.71,0,0,0-2-.53,4.36,4.36,0,0,0-1.92.3q-.9.39-.7,1a3.73,3.73,0,0,0,.92,1.35,16.38,16.38,0,0,1,1.3,1.5,1.57,1.57,0,0,1,.23,1.66,3.71,3.71,0,0,1-2.09,1.63,12.37,12.37,0,0,1-4.56.95,14.58,14.58,0,0,1-5-.7l-2.47,1.06-2.9-1.41,2.41-1a5.43,5.43,0,0,1-1.15-1,3.06,3.06,0,0,1-.57-1A3.16,3.16,0,0,1,203,78a1.68,1.68,0,0,1,0-.54l.08-.2h4.3a3.43,3.43,0,0,0-.1.44,1.83,1.83,0,0,0,.35,1,3.23,3.23,0,0,0,1.43,1.21,6.11,6.11,0,0,0,2.5.65,5.2,5.2,0,0,0,2.3-.37q.89-.38.67-1a3.72,3.72,0,0,0-1-1.35,13.77,13.77,0,0,1-1.32-1.49,1.54,1.54,0,0,1-.18-1.67A4,4,0,0,1,214.34,73a11.84,11.84,0,0,1,4.37-.86,12.63,12.63,0,0,1,4.66.73l2.47-1.06,2.7,1.47-2.47,1.06A3.52,3.52,0,0,1,227.1,75.65Z" fill="#ea8b24"></path><ellipse cx="215.19" cy="77.66" rx="19.78" ry="11.59" fill="none" stroke="#f7931e" stroke-miterlimit="10" stroke-width="2"></ellipse><polygon points="327.89 119.07 212.28 144.76 212.28 178.83 257.42 205.94 327.89 164.65 327.89 119.07" fill="#ED7117"></polygon><polyline points="328.29 119.01 256.75 168.22 212.28 144.76 245.81 126.48" fill="#3099aa" opacity="0.81"></polyline><path d="M203.91,137.77l42.64,24.62a109.52,109.52,0,0,0,37-13c19.08-10.88,45.36-31.13,45.36-31.13l-39.2-22.69-55.43,32.73S219,135.73,203.91,137.77Z" fill="#ED7117"></path><path d="M208.75,138.49l38.54,22.26a130.66,130.66,0,0,0,35.25-13.35c17.25-9.84,41-28.14,41-28.14L288.12,98.74,238,128.33A149.8,149.8,0,0,1,208.75,138.49Z" fill="none" stroke="#2e3192" stroke-miterlimit="10"></path><polygon points="256.75 168.22 256.75 205.94 327.89 164.65 328.92 118.22 256.75 168.22" fill="#3099aa" opacity="0.54"></polygon><polygon points="256.75 168.22 256.75 205.94 327.89 164.65 328.92 118.22 256.75 168.22" fill="#3099aa" opacity="0.54"></polygon><path d="M260.58,120.74,287,104.35l28.83,15.26s-30.1,18.22-32.38,19.49-27.32,15-38.3,14.46L220,139.6Z" fill="#fff" opacity="0.5"></path><ellipse cx="269.21" cy="132.66" rx="22.73" ry="10.96" fill="#3099aa" opacity="0.54"></ellipse><path d="M212.28,151.92q11.22,6,22.39,12.15T257,176.38l-.47,0,17.77-11.63,17.82-11.56L310,141.73q8.94-5.72,17.94-11.37-8.79,6-17.63,11.84l-17.7,11.73L274.8,165.59,257,177.16l-.23.15-.24-.13q-11.11-6.22-22.17-12.55T212.28,151.92Z" fill="#3099aa" opacity="0.68"></path><path d="M212.28,160.86q11.22,6,22.39,12.15T257,185.32l-.47,0,17.77-11.63,17.82-11.56L310,150.67q8.94-5.72,17.94-11.37-8.79,6-17.63,11.84l-17.7,11.73L274.8,174.52,257,186.1l-.23.15-.24-.13q-11.11-6.22-22.17-12.55T212.28,160.86Z" fill="#3099aa" opacity="0.68"></path><path d="M212.48,167.69q11.22,6,22.39,12.15t22.3,12.31l-.47,0,17.77-11.63L292.28,169l17.87-11.48q8.94-5.72,17.94-11.37-8.79,6-17.63,11.84l-17.7,11.73L275,181.36l-17.8,11.58-.23.15-.24-.13q-11.11-6.22-22.17-12.55T212.48,167.69Z" fill="#3099aa" opacity="0.68"></path><path d="M212.28,174.37q11.22,6,22.39,12.15T257,198.83l-.47,0,17.77-11.63,17.82-11.56L310,164.18q8.94-5.72,17.94-11.37-8.79,6-17.63,11.84l-17.7,11.73L274.8,188,257,199.61l-.23.15-.24-.13q-11.11-6.22-22.17-12.55T212.28,174.37Z" fill="#3099aa" opacity="0.68"></path><polygon points="239.01 125.47 283.56 149.35 283.56 190.63 300.33 180.64 300.33 138.24 256.75 114.99 239.01 125.47" fill="#dce5ca"></polygon><polygon points="283.56 149.35 300.33 138.24 300.33 180.64 283.56 190.63 283.56 149.35" fill="#c7d1b0"></polygon><path d="M274.05,129.32a8.61,8.61,0,0,1,3.14.88,3.78,3.78,0,0,1,1.7,1.42,1.63,1.63,0,0,1-.08,1.73,4.83,4.83,0,0,1-1.86,1.59l3,1.45-1.63.85-3-1.5a13.68,13.68,0,0,1-4.48.89,11.26,11.26,0,0,1-4.82-.84l3.12-1.62a6.24,6.24,0,0,0,2,.41,5.92,5.92,0,0,0,1.52-.13l-4.49-2.21c-1.29.35-2.4.61-3.31.77a12,12,0,0,1-3,.12,8.7,8.7,0,0,1-3.16-.89,3.32,3.32,0,0,1-1.7-1.5,1.7,1.7,0,0,1,.25-1.71,5.22,5.22,0,0,1,1.6-1.38l-2.93-1.44,1.63-.85,3,1.46a12.33,12.33,0,0,1,4.41-.93,11.19,11.19,0,0,1,4.57.79l-3.16,1.64a5.81,5.81,0,0,0-1.85-.35,5.24,5.24,0,0,0-1.38.13l4.36,2.14.2,0q2-.52,3.4-.77A11.82,11.82,0,0,1,274.05,129.32Zm1,3.54c0-.37-.32-.7-.92-1a4,4,0,0,0-1.89-.39,10.48,10.48,0,0,0-1.86.23l4.09,2c.39-.27.59-.56.58-.85m-9.87-2.07-3.85-1.89a1.09,1.09,0,0,0-.5.73c0,.33.27.64.85.93a4.07,4.07,0,0,0,1.84.4,10.22,10.22,0,0,0,1.66-.17" fill="#0a5293"></path><path d="M153.88,163.38c-2.21.34-17.55,2.67-21.31,25.5-7.24,44,41.26,79.27,82,72.28a27.65,27.65,0,0,0,16.87-9.61c3.38-4.24,4.16-10.13,3.1-15.45-3.46-17.42-20.26-25.9-30-39.22-5.15-7-6.23-15.82-11.61-22.62C183.41,162.34,168,161.23,153.88,163.38Z" fill="#ffbe30"></path><path d="M159.52,171.85c-1.46.22-11.62,1.77-14.11,16.89-4.8,29.11,27.32,52.5,54.28,47.87a18.31,18.31,0,0,0,11.17-6.36A12.6,12.6,0,0,0,212.91,220c-2.29-11.54-13.42-17.15-19.89-26-3.41-4.65-4.12-10.48-7.69-15C179.08,171.16,168.84,170.43,159.52,171.85Z" fill="#efa91b"></path><polygon points="257.58 249.75 251.31 247.26 253.24 237.14 259.09 235.9 257.58 249.75" fill="#7c1251"></polygon><path d="M165.63,157.32s-3.33,1.19-3.7,1.19-6.23-.07-5.85,3.37,9.54,2.55,9.54,2.55l4.22-4.44" fill="#ea831c"></path><path d="M153.83,161.48l4.69-1.56s5.7-1.23,6.26,0-1,5.3-1.57,5.43l-4.32,1-4.26.49" fill="#f7931e"></path><path d="M190.87,207.12s29.08,19.1,31.93,19.37S254.32,238,254.32,238s-1.42,7.22-.66,10.54c0,0-52.4-13.2-59-15.45s-21.76-17.26-17.89-21.3S190.87,207.12,190.87,207.12Z" fill="#e86a58"></path><path d="M174,177c2.38-2.25,6.35-12.3,5.38-14.62s-7.38,1.52-7.38,1.52l-6.41-6.59s8.93-7.35,13.2-8.53,7.57.2,8.93,5.33-3.11,23.18-2.54,27,5.64,26,5.64,26c-4.08,7-20.77,10.68-23.1,10.09s-14.17-27.06-14.17-27.06S131.46,175.73,134.37,169s15.72-8.62,18.35-8.91,4.61,8.16,4.61,8.16-8.39,2.36-9.17,3.44,2.91,3.83,9.9,5.34,8.54.67,8.54.67" fill="#ED7117"></path><path d="M257.58,249.75s-.54-4.79-.92-7-1.77-14.47,3.79-14.05,2,12.35,2.21,13.67.74,5.05-.08,6.21S259.37,251,257.58,249.75Z" fill="#7c1251"></path><path d="M264.58,240.24s2,1.37,3.37-.26,2.13-14.95,3.14-17.61,1.12-7.38-2.13-7.69-3.71,1.29-4.38,3.43-3.29,8.76-5.73,9.6a57.72,57.72,0,0,1-6.18,1.59l.56,7.84Z" fill="#981e61"></path><path d="M171.6,180.58s5.71,25.86,5.95,26.54,5.42,3.71,5.42,3.71l1.15-4.65L173.18,180.1Z" fill="#091114"></path><path d="M164.06,177.91s7.46,6.45,7.13,6,1.59-3,1.59-3l3.35,1-3.83-6.7" fill="#091114"></path><path d="M175.9,165.9s2.82,10.44-1.84,12.73-7.93-1.12-9.35-4.24-.87-10.42,5.15-11.17C175.11,162.58,175.9,165.9,175.9,165.9Z" fill="#f7931e"></path><path d="M176.81,163.92c.49-1.28.7-3.55-.78-4.26a3.19,3.19,0,0,0-3.32.61,4.57,4.57,0,0,0-1.79-.86,7.19,7.19,0,0,0-6.81,1.49,1,1,0,0,1-.28.2,1.19,1.19,0,0,1-.44.05c-3.66.06-4.46,4.26-3.82,7.12A14.37,14.37,0,0,0,164,176a8.74,8.74,0,0,0,3.32,1.71.27.27,0,0,0,.35-.29.35.35,0,0,0,.11-.49,3.38,3.38,0,0,1-.32-2,.31.31,0,0,0-.09-.27.33.33,0,0,0-.27-.56,2.56,2.56,0,0,1-2.15-.76c-.34-.36-.62-1.06,0-1.24a.79.79,0,0,1,.72.2,2.67,2.67,0,0,0,.35.48.33.33,0,0,0,.18.1c.25.08.57-.12.41-.41a2.74,2.74,0,0,0-.4-.55,1.94,1.94,0,0,1,.35-2.4c.86-.77,1.65-.35,2.64-.31a1.26,1.26,0,0,0,1.38-.91,4.82,4.82,0,0,0-.15-1.24,1.51,1.51,0,0,1,.93-1.47c1-.41,1.73.48,2.49,1a2.68,2.68,0,0,0,2.25.46,1.89,1.89,0,0,0,1-3A.32.32,0,0,0,176.81,163.92Zm-6.34,1.48A1,1,0,0,1,171,165a.89.89,0,0,0,.19-.11l.06,0,.1,0A2.15,2.15,0,0,0,170.47,165.4Zm5.9-2.21,0,0a3,3,0,0,0,.13-.34C176.42,162.95,176.4,163.07,176.37,163.19Z" fill="#935542"></path><path d="M167.76,217.21s4.8,15,14.37,18.12,17.29-2.87,21.76-1.5,40.92,5.89,50.43,4.12c0,0,1.61-10.32-.66-12.48s-42.12-10.29-46-10.84-21.29-3.21-21.29-3.21" fill="#ff7b61"></path><path d="M231.26,78.42s.49,7.6-5.42,8.07c0,0,5,2.08,5.84,6.06,0,0,.62-5.56,5.7-6.13A7.82,7.82,0,0,1,231.26,78.42Z" fill="#fff"></path><path d="M61,92s.49,7.6-5.42,8.07c0,0,5,2.08,5.84,6.06,0,0,.62-5.56,5.7-6.13A7.82,7.82,0,0,1,61,92Z" fill="#fff"></path><path d="M314.63,116.37s.49,7.6-5.42,8.07c0,0,5,2.08,5.84,6.06,0,0,.62-5.56,5.7-6.13A7.82,7.82,0,0,1,314.63,116.37Z" fill="#fff"></path></g></g></svg>